<svg width="312" height="93" viewBox="0 0 312 93" fill="none" xmlns="http://www.w3.org/2000/svg">
<path d="M99.952 57.356V47.856H121.46V57.356H99.952ZM131.624 74V20.8H141.808L164.456 58.344H159.06L181.328 20.8H191.436L191.588 74H180.036L179.96 38.508H182.088L164.304 68.376H158.756L140.592 38.508H143.176V74H131.624ZM228.454 74V66.02L227.694 64.272V49.984C227.694 47.4507 226.909 45.4747 225.338 44.056C223.818 42.6373 221.462 41.928 218.27 41.928C216.092 41.928 213.938 42.2827 211.81 42.992C209.733 43.6507 207.96 44.5627 206.49 45.728L202.234 37.444C204.464 35.8733 207.149 34.6573 210.29 33.796C213.432 32.9347 216.624 32.504 219.866 32.504C226.098 32.504 230.937 33.9733 234.382 36.912C237.828 39.8507 239.55 44.436 239.55 50.668V74H228.454ZM215.99 74.608C212.798 74.608 210.062 74.076 207.782 73.012C205.502 71.8973 203.754 70.4027 202.538 68.528C201.322 66.6533 200.714 64.5507 200.714 62.22C200.714 59.788 201.297 57.66 202.462 55.836C203.678 54.012 205.578 52.5933 208.162 51.58C210.746 50.516 214.116 49.984 218.27 49.984H229.138V56.9H219.562C216.776 56.9 214.85 57.356 213.786 58.268C212.773 59.18 212.266 60.32 212.266 61.688C212.266 63.208 212.849 64.424 214.014 65.336C215.23 66.1973 216.877 66.628 218.954 66.628C220.93 66.628 222.704 66.172 224.274 65.26C225.845 64.2973 226.985 62.904 227.694 61.08L229.518 66.552C228.657 69.1867 227.086 71.188 224.806 72.556C222.526 73.924 219.588 74.608 215.99 74.608ZM250.281 74V33.112H261.605V44.664L260.009 41.32C261.225 38.432 263.175 36.2533 265.861 34.784C268.546 33.264 271.814 32.504 275.665 32.504V43.448C275.158 43.3973 274.702 43.372 274.297 43.372C273.891 43.3213 273.461 43.296 273.005 43.296C269.762 43.296 267.127 44.2333 265.101 46.108C263.125 47.932 262.137 50.7947 262.137 54.696V74H250.281ZM300.844 74.608C296.031 74.608 292.282 73.392 289.596 70.96C286.911 68.4773 285.568 64.804 285.568 59.94V24.068H297.424V59.788C297.424 61.5107 297.88 62.8533 298.792 63.816C299.704 64.728 300.946 65.184 302.516 65.184C304.391 65.184 305.987 64.6773 307.304 63.664L310.496 72.024C309.28 72.8853 307.811 73.544 306.088 74C304.416 74.4053 302.668 74.608 300.844 74.608ZM279.26 43.144V34.024H307.608V43.144H279.26Z" fill="white"/>
<path fill-rule="evenodd" clip-rule="evenodd" d="M81.4 74.4637C86.8089 67.0367 90 57.891 90 48C90 36.7838 85.8965 26.526 79.1088 18.646L35.212 71.688H81.4V74.4637ZM67.465 87H22.535C29.146 90.8163 36.818 93 45 93C53.182 93 60.8541 90.8163 67.465 87ZM10.408 76.7836C3.90927 68.982 0 58.9475 0 48C0 36.5408 4.28322 26.0821 11.336 18.1373V21.112H54.9589L10.408 74.82V76.7836ZM29.3392 5.79999H60.6608C55.7836 3.98934 50.5073 3 45 3C39.4927 3 34.2164 3.98934 29.3392 5.79999Z" fill="white"/>
</svg>
