<svg width="90" height="90" viewBox="0 0 90 90" fill="none" xmlns="http://www.w3.org/2000/svg">
<path fill-rule="evenodd" clip-rule="evenodd" d="M81.4 71.4637C86.8089 64.0367 90 54.891 90 45C90 33.7838 85.8965 23.526 79.1088 15.646L35.212 68.688H81.4V71.4637ZM67.465 84H22.535C29.146 87.8163 36.818 90 45 90C53.182 90 60.8541 87.8163 67.465 84ZM10.408 73.7836C3.90927 65.982 0 55.9475 0 45C0 33.5408 4.28322 23.0821 11.336 15.1373V18.112H54.9589L10.408 71.82V73.7836ZM29.3392 2.79999H60.6608C55.7836 0.989342 50.5073 0 45 0C39.4927 0 34.2164 0.989342 29.3392 2.79999Z" fill="#AC87C5"/>
</svg>
